<svg xmlns="http://www.w3.org/2000/svg" xmlns:xlink="http://www.w3.org/1999/xlink" viewBox="0 0 1365.5 768.5"><defs><style>.cls-1{fill:url(#linear-gradient);}.cls-2{fill:url(#linear-gradient-2);}.cls-3{fill:url(#linear-gradient-3);}.cls-4{fill:url(#linear-gradient-4);}</style><linearGradient id="linear-gradient" x1="277.31" y1="16.59" x2="785.58" y2="388.58" gradientUnits="userSpaceOnUse"><stop offset="0" stop-color="red"/><stop offset="0.1" stop-color="#ff0707"/><stop offset="0.24" stop-color="#ff1b1b"/><stop offset="0.41" stop-color="#ff3c3c"/><stop offset="0.61" stop-color="#ff6969"/><stop offset="0.82" stop-color="#ffa3a3"/><stop offset="1" stop-color="#ffd9d9"/></linearGradient><linearGradient id="linear-gradient-2" x1="89.5" y1="384.5" x2="1006.5" y2="384.5" gradientUnits="userSpaceOnUse"><stop offset="0" stop-color="#ed1c24"/><stop offset="1" stop-color="#ff7d7d"/></linearGradient><linearGradient id="linear-gradient-3" x1="35.75" y1="33.6" x2="427.29" y2="430.98" gradientUnits="userSpaceOnUse"><stop offset="0" stop-color="#c2272e"/><stop offset="1" stop-color="#ff1e27"/></linearGradient><linearGradient id="linear-gradient-4" x1="1098.29" y1="506.54" x2="1289.67" y2="734.45" gradientUnits="userSpaceOnUse"><stop offset="0" stop-color="red"/><stop offset="0.43" stop-color="#e21215"/><stop offset="1" stop-color="#c1272d"/></linearGradient></defs><title>Layer 1</title><g id="Layer_2" data-name="Layer 2"><g id="Layer_1-2" data-name="Layer 1"><path class="cls-1" d="M194.5,768.5h83s284-12,396-351,692-417,692-417H194.5Z"/><path class="cls-2" d="M89.5,768.5h83s284-12,396-351,438-417,438-417H89.5Z"/><path class="cls-3" d="M0,768H83s284-12,396-351S762,0,762,0H0Z"/><path class="cls-4" d="M1365.5,435.45V768.5H991.35A286.59,286.59,0,0,1,984.5,706c0-158.23,128.27-286.5,286.5-286.5A286.19,286.19,0,0,1,1365.5,435.45Z"/></g></g></svg>