<svg xmlns="http://www.w3.org/2000/svg" xmlns:xlink="http://www.w3.org/1999/xlink" viewBox="0 0 1365.5 769"><defs><style>.cls-1{fill:url(#linear-gradient);}.cls-2{stroke:#fcee21;stroke-miterlimit:10;fill:url(#linear-gradient-2);}.cls-3{fill:url(#linear-gradient-3);}.cls-4{fill:url(#linear-gradient-4);}</style><linearGradient id="linear-gradient" x1="277.31" y1="16.59" x2="785.58" y2="388.58" gradientUnits="userSpaceOnUse"><stop offset="0" stop-color="#fbcb80"/><stop offset="0.4" stop-color="#fbce80"/><stop offset="0.65" stop-color="#fbd67e"/><stop offset="0.86" stop-color="#fce57b"/><stop offset="1" stop-color="#fcf379"/></linearGradient><linearGradient id="linear-gradient-2" x1="121.89" y1="130.94" x2="713.58" y2="483.03" gradientUnits="userSpaceOnUse"><stop offset="0" stop-color="#fbb03b"/><stop offset="1" stop-color="#ffa23d"/></linearGradient><linearGradient id="linear-gradient-3" x1="35.75" y1="33.6" x2="427.29" y2="430.98" gradientUnits="userSpaceOnUse"><stop offset="0" stop-color="#ff1e27"/><stop offset="0.22" stop-color="#fc4624"/><stop offset="0.43" stop-color="#fa6821"/><stop offset="0.64" stop-color="#f8801f"/><stop offset="0.84" stop-color="#f78e1e"/><stop offset="1" stop-color="#f7931e"/></linearGradient><linearGradient id="linear-gradient-4" x1="1107.17" y1="502.61" x2="1210.9" y2="647.25" gradientUnits="userSpaceOnUse"><stop offset="0" stop-color="#fcee21"/><stop offset="1" stop-color="#f78500"/></linearGradient></defs><title>Layer 1</title><g id="Layer_2" data-name="Layer 2"><g id="Layer_1-2" data-name="Layer 1"><path class="cls-1" d="M194.5,768.5h83s284-12,396-351,692-417,692-417H194.5Z"/><path class="cls-2" d="M89.5,768.5h83s284-12,396-351,438-417,438-417H89.5Z"/><path class="cls-3" d="M0,768H83s284-12,396-351S762,0,762,0H0Z"/><path class="cls-4" d="M1365.5,435.45V768.5H991.35A286.59,286.59,0,0,1,984.5,706c0-158.23,128.27-286.5,286.5-286.5A286.19,286.19,0,0,1,1365.5,435.45Z"/></g></g></svg>