<svg xmlns="http://www.w3.org/2000/svg" xmlns:xlink="http://www.w3.org/1999/xlink" viewBox="0 0 1365.5 768.5"><defs><style>.cls-1{fill:url(#linear-gradient);}.cls-2{fill:url(#linear-gradient-2);}.cls-3{fill:url(#linear-gradient-3);}.cls-4{fill:url(#linear-gradient-4);}</style><linearGradient id="linear-gradient" x1="401.71" y1="191.88" x2="877.99" y2="434.4" gradientUnits="userSpaceOnUse"><stop offset="0" stop-color="aqua"/><stop offset="1" stop-color="#f7ffff"/></linearGradient><linearGradient id="linear-gradient-2" x1="89.5" y1="384.5" x2="1006.5" y2="384.5" gradientUnits="userSpaceOnUse"><stop offset="0" stop-color="aqua"/><stop offset="0.13" stop-color="#09fdfd"/><stop offset="0.33" stop-color="#21f7f7"/><stop offset="0.59" stop-color="#48eded"/><stop offset="0.89" stop-color="#7ee0e0"/><stop offset="1" stop-color="#93dbdb"/></linearGradient><linearGradient id="linear-gradient-3" x1="35.75" y1="33.6" x2="427.29" y2="430.98" gradientUnits="userSpaceOnUse"><stop offset="0" stop-color="blue"/><stop offset="0.03" stop-color="#000bff"/><stop offset="0.24" stop-color="#0054ff"/><stop offset="0.44" stop-color="#0091ff"/><stop offset="0.62" stop-color="#00c1ff"/><stop offset="0.78" stop-color="#00e3ff"/><stop offset="0.91" stop-color="#00f7ff"/><stop offset="1" stop-color="aqua"/></linearGradient><linearGradient id="linear-gradient-4" x1="1332.59" y1="752.92" x2="1122.21" y2="546.93" gradientUnits="userSpaceOnUse"><stop offset="0" stop-color="blue"/><stop offset="0.08" stop-color="#001fff"/><stop offset="0.28" stop-color="#0062ff"/><stop offset="0.46" stop-color="#009aff"/><stop offset="0.63" stop-color="#00c6ff"/><stop offset="0.78" stop-color="#00e5ff"/><stop offset="0.91" stop-color="#00f8ff"/><stop offset="1" stop-color="aqua"/></linearGradient></defs><title>Layer 1</title><g id="Layer_2" data-name="Layer 2"><g id="Layer_1-2" data-name="Layer 1"><path class="cls-1" d="M194.5,768.5h83s284-12,396-351,692-417,692-417H194.5Z"/><path class="cls-2" d="M89.5,768.5h83s284-12,396-351,438-417,438-417H89.5Z"/><path class="cls-3" d="M0,768H83s284-12,396-351S762,0,762,0H0Z"/><path class="cls-4" d="M1365.5,435.45V768.5H991.35A286.59,286.59,0,0,1,984.5,706c0-158.23,128.27-286.5,286.5-286.5A286.19,286.19,0,0,1,1365.5,435.45Z"/></g></g></svg>