<svg xmlns="http://www.w3.org/2000/svg" xmlns:xlink="http://www.w3.org/1999/xlink" viewBox="0 0 1365.5 768.5"><defs><style>.cls-1{fill:url(#linear-gradient);}.cls-2{fill:url(#linear-gradient-2);}.cls-3{fill:url(#linear-gradient-3);}.cls-4{fill:url(#linear-gradient-4);}</style><linearGradient id="linear-gradient" x1="277.31" y1="16.59" x2="785.58" y2="388.58" gradientUnits="userSpaceOnUse"><stop offset="0" stop-color="#ffba4d"/><stop offset="0.55" stop-color="#ffe266"/><stop offset="1" stop-color="#ffff78"/></linearGradient><linearGradient id="linear-gradient-2" x1="89.5" y1="384.5" x2="1006.5" y2="384.5" gradientUnits="userSpaceOnUse"><stop offset="0" stop-color="#ffba4d"/><stop offset="0.22" stop-color="#ffc14b"/><stop offset="0.55" stop-color="#ffd546"/><stop offset="0.94" stop-color="#fff53e"/><stop offset="1" stop-color="#fffb3d"/></linearGradient><linearGradient id="linear-gradient-3" x1="422.12" y1="414.26" x2="29.12" y2="124.99" gradientUnits="userSpaceOnUse"><stop offset="0" stop-color="#ffba4d"/><stop offset="0.28" stop-color="#ffb546"/><stop offset="0.69" stop-color="#ffa532"/><stop offset="1" stop-color="#ff971f"/></linearGradient><linearGradient id="linear-gradient-4" x1="1358.01" y1="776.22" x2="1072.48" y2="499.18" gradientUnits="userSpaceOnUse"><stop offset="0" stop-color="#f7931e"/><stop offset="0.27" stop-color="#f7961d"/><stop offset="0.44" stop-color="#f89e1b"/><stop offset="0.59" stop-color="#f9ad17"/><stop offset="0.72" stop-color="#fac211"/><stop offset="0.84" stop-color="#fcdd09"/><stop offset="0.95" stop-color="#fffe00"/><stop offset="0.96" stop-color="#ff0"/></linearGradient></defs><title>Layer 1</title><g id="Layer_2" data-name="Layer 2"><g id="Layer_1-2" data-name="Layer 1"><path class="cls-1" d="M194.5,768.5h83s284-12,396-351,692-417,692-417H194.5Z"/><path class="cls-2" d="M89.5,768.5h83s284-12,396-351,438-417,438-417H89.5Z"/><path class="cls-3" d="M0,768H83s284-12,396-351S762,0,762,0H0Z"/><path class="cls-4" d="M1365.5,435.45V768.5H991.35A286.59,286.59,0,0,1,984.5,706c0-158.23,128.27-286.5,286.5-286.5A286.19,286.19,0,0,1,1365.5,435.45Z"/></g></g></svg>