<svg xmlns="http://www.w3.org/2000/svg" xmlns:xlink="http://www.w3.org/1999/xlink" viewBox="0 0 1365.5 768.5"><defs><style>.cls-1{fill:url(#linear-gradient);}.cls-2{fill:url(#linear-gradient-2);}.cls-3{fill:url(#linear-gradient-3);}.cls-4{fill:url(#linear-gradient-4);}</style><linearGradient id="linear-gradient" x1="401.71" y1="191.88" x2="877.99" y2="434.4" gradientUnits="userSpaceOnUse"><stop offset="0" stop-color="#8cc63f"/><stop offset="0.2" stop-color="#93cd48"/><stop offset="0.53" stop-color="#a7de60"/><stop offset="0.95" stop-color="#c7fb87"/><stop offset="1" stop-color="#cbff8c"/></linearGradient><linearGradient id="linear-gradient-2" x1="121.89" y1="130.94" x2="713.58" y2="483.03" gradientUnits="userSpaceOnUse"><stop offset="0" stop-color="#009245"/><stop offset="1" stop-color="#bbff60"/></linearGradient><linearGradient id="linear-gradient-3" x1="35.75" y1="33.6" x2="427.29" y2="430.98" gradientUnits="userSpaceOnUse"><stop offset="0" stop-color="#007839"/><stop offset="1" stop-color="#55d466"/></linearGradient><linearGradient id="linear-gradient-4" x1="1328.9" y1="753.53" x2="1125.82" y2="548.99" gradientUnits="userSpaceOnUse"><stop offset="0" stop-color="#049445"/><stop offset="0.15" stop-color="#1ea350"/><stop offset="0.35" stop-color="#37b15a"/><stop offset="0.55" stop-color="#4abc61"/><stop offset="0.76" stop-color="#54c266"/><stop offset="1" stop-color="#58c467"/></linearGradient></defs><title>Layer 1</title><g id="Layer_2" data-name="Layer 2"><g id="Layer_1-2" data-name="Layer 1"><path class="cls-1" d="M194.5,768.5h83s284-12,396-351,692-417,692-417H194.5Z"/><path class="cls-2" d="M89.5,768.5h83s284-12,396-351,438-417,438-417H89.5Z"/><path class="cls-3" d="M0,768H83s284-12,396-351S762,0,762,0H0Z"/><path class="cls-4" d="M1365.5,435.45V768.5H991.35A286.59,286.59,0,0,1,984.5,706c0-158.23,128.27-286.5,286.5-286.5A286.19,286.19,0,0,1,1365.5,435.45Z"/></g></g></svg>